<svg xmlns="http://www.w3.org/2000/svg" viewBox="0 0 64 64">
  <rect width="64" height="64" fill="#050308"/>
  <rect x="11" y="41" width="42" height="4" rx="2" fill="#8e6635" transform="rotate(2 32 43)"/>
  <rect x="11" y="43" width="42" height="4" rx="2" fill="#8e6635" transform="rotate(-5 32 45)"/>
  <path d="M32 9 C25 21 22 25 18 34 C15 41 20 49 32 49 C44 49 49 41 46 33 C43 25 39 21 32 9 Z" fill="#ff1b0a"/>
  <path d="M33 17 C29 26 27 30 25 36 C24 41 27 45 32 45 C37 45 40 41 39 36 C38 30 36 26 33 17 Z" fill="#ff8b16"/>
</svg>
