<svg xmlns="http://www.w3.org/2000/svg" width="64" height="64" viewBox="0 0 64 64" shape-rendering="crispEdges">
  <rect width="64" height="64" fill="#525660"/>
  <rect x="4" y="4" width="56" height="56" fill="#6c717d"/>
  <rect x="8" y="8" width="48" height="48" fill="#7f8694"/>
  <rect x="10" y="10" width="44" height="44" fill="#8c93a2"/>

  <rect x="12" y="12" width="12" height="4" fill="#b7bfcb"/>
  <rect x="40" y="12" width="12" height="4" fill="#b7bfcb"/>
  <rect x="12" y="48" width="12" height="4" fill="#5b606b"/>
  <rect x="40" y="48" width="12" height="4" fill="#5b606b"/>

  <rect x="24" y="40" width="16" height="8" fill="#3a3d45"/>
  <rect x="20" y="44" width="24" height="6" fill="#2c2f36"/>
  <rect x="28" y="28" width="8" height="12" fill="#464a54"/>

  <rect x="18" y="22" width="28" height="10" fill="#4a4f58"/>
  <rect x="20" y="20" width="24" height="10" fill="#5e6470"/>
  <rect x="24" y="18" width="16" height="6" fill="#737b89"/>

  <rect x="17" y="24" width="4" height="4" fill="#aeb7c6"/>
  <rect x="43" y="24" width="4" height="4" fill="#aeb7c6"/>
  <rect x="28" y="24" width="8" height="4" fill="#ee5f57"/>
  <rect x="30" y="22" width="4" height="4" fill="#ffd86b"/>

  <rect x="26" y="14" width="12" height="4" fill="#3d424d"/>
  <rect x="28" y="12" width="8" height="4" fill="#f06b62"/>

  <rect x="18" y="31" width="8" height="5" fill="#3d4149"/>
  <rect x="38" y="31" width="8" height="5" fill="#3d4149"/>

  <rect x="28" y="32" width="8" height="16" fill="#202229"/>
  <rect x="26" y="32" width="4" height="18" fill="#343841"/>
  <rect x="34" y="32" width="4" height="18" fill="#343841"/>
  <rect x="28" y="50" width="8" height="4" fill="#f5b941"/>

  <rect x="0" y="0" width="64" height="64" fill="none" stroke="#2b2f36" stroke-width="4"/>
</svg>
